<?xml version="1.0" standalone="no"?>
<!DOCTYPE svg PUBLIC "-//W3C//DTD SVG 20010904//EN"
 "http://www.w3.org/TR/2001/REC-SVG-20010904/DTD/svg10.dtd">
<svg version="1.0" xmlns="http://www.w3.org/2000/svg"
 width="508.000000pt" height="508.000000pt" viewBox="0 0 508.000000 508.000000"
 preserveAspectRatio="xMidYMid meet">

<g transform="translate(0.000000,508.000000) scale(0.100000,-0.100000)"
fill="#000000" stroke="none">
<path d="M2543 4610 c77 -4 159 -14 183 -20 46 -13 66 -8 46 12 -7 7 -73 12
-189 14 l-178 2 138 -8z"/>
<path d="M2345 4594 c-16 -2 -67 -9 -113 -15 -45 -6 -84 -15 -87 -19 -3 -4 9
-13 26 -19 28 -10 30 -13 18 -27 -12 -15 -10 -16 26 -10 89 15 435 46 514 46
157 0 -50 41 -229 45 -69 2 -138 1 -155 -1z"/>
<path d="M2939 4549 c31 -14 41 -23 34 -30 -8 -8 -17 -8 -31 0 -14 7 -49 8
-109 2 -48 -4 -78 -9 -65 -10 13 0 33 -6 45 -13 21 -11 127 -37 155 -38 7 0
10 5 7 10 -3 6 -24 10 -45 10 -21 0 -42 5 -45 10 -4 6 17 10 54 10 34 0 61 4
61 10 0 15 32 12 75 -6 20 -8 39 -13 42 -11 6 6 -102 47 -125 47 -9 1 -28 7
-42 15 -14 8 -32 14 -40 14 -8 1 5 -8 29 -20z"/>
<path d="M2820 4545 c-15 -18 -7 -18 40 0 l35 13 -31 1 c-17 1 -37 -6 -44 -14z"/>
<path d="M2076 4539 c-10 -6 -36 -9 -57 -6 -22 3 -39 1 -39 -4 0 -5 -12 -8
-27 -7 -16 1 -57 -11 -93 -26 -36 -15 -93 -38 -127 -49 -35 -12 -61 -27 -59
-33 2 -6 -21 -26 -52 -45 -39 -23 -51 -35 -38 -37 9 -2 32 3 49 11 18 8 59 20
92 26 33 7 70 14 83 17 20 4 22 2 13 -14 -7 -13 -34 -24 -88 -36 -76 -16 -112
-30 -103 -40 3 -2 39 4 80 14 41 9 76 16 78 15 1 -1 -3 -14 -9 -29 -10 -20
-27 -30 -79 -46 -37 -11 -73 -26 -79 -34 -9 -10 10 -7 64 9 l75 23 0 -22 c0
-19 -16 -29 -107 -66 -60 -24 -113 -50 -120 -59 -7 -9 -13 -11 -13 -5 0 16 55
95 89 128 31 30 40 56 20 56 -7 0 -19 8 -28 18 -36 42 -76 31 -206 -58 -36
-24 -65 -48 -65 -52 0 -13 22 -9 40 7 8 8 32 21 52 29 31 13 38 13 54 1 18
-13 17 -14 -15 -15 -25 0 -47 -10 -80 -38 -56 -47 -91 -67 -91 -52 0 8 -6 8
-20 0 -23 -13 -25 -3 -5 24 8 11 15 14 15 8 0 -9 4 -9 19 0 11 7 17 16 15 20
-3 5 -11 5 -17 1 -7 -4 -17 -8 -24 -9 -19 -3 -130 -105 -211 -193 -41 -44 -78
-79 -84 -78 -6 1 -12 -6 -13 -17 -2 -10 -15 -31 -29 -45 -37 -39 -33 -58 6
-26 38 32 49 18 20 -23 -19 -26 -19 -29 -4 -39 16 -10 15 -13 -5 -34 -11 -13
-31 -45 -43 -71 -12 -26 -28 -52 -36 -59 -12 -9 -14 -5 -14 27 0 22 5 56 11
77 6 22 8 41 6 44 -8 7 -77 -129 -89 -175 -7 -30 -26 -59 -57 -90 -49 -49 -58
-67 -84 -167 -29 -113 -74 -272 -95 -336 -11 -35 -24 -98 -28 -141 -5 -65 -4
-80 12 -102 11 -14 24 -26 30 -26 6 0 17 -6 23 -14 9 -11 18 -7 48 20 35 33
36 35 43 126 6 87 7 91 19 63 7 -16 15 -45 18 -63 4 -22 14 -37 28 -44 37 -16
44 -39 64 -189 4 -36 16 -78 26 -92 15 -23 16 -33 5 -77 -15 -64 -7 -175 22
-292 21 -83 22 -86 44 -76 26 12 54 74 54 119 0 53 15 69 68 69 26 0 67 9 91
20 102 47 165 13 195 -104 9 -36 16 -73 16 -84 0 -10 19 -31 43 -49 53 -37 77
-100 58 -154 -17 -50 -13 -105 13 -167 13 -31 29 -74 34 -95 l11 -38 -60 56
c-61 56 -88 70 -70 38 5 -10 21 -29 35 -42 14 -14 26 -31 26 -39 0 -8 9 -26
19 -41 11 -15 27 -47 37 -72 23 -58 30 -66 91 -106 56 -36 73 -39 91 -21 14
14 1 40 -49 93 -21 22 -47 52 -59 68 l-21 27 25 0 c14 0 26 2 26 5 0 20 -57
126 -90 167 -49 62 -54 111 -16 147 l24 23 32 -43 c17 -24 49 -58 72 -75 36
-27 46 -30 76 -23 20 4 47 16 61 27 23 18 26 26 23 73 -2 42 -11 66 -42 113
-52 78 -52 77 6 129 l31 28 31 -31 32 -31 47 21 c32 14 59 19 79 15 24 -4 46
3 98 32 68 38 116 91 153 169 16 33 16 38 -5 102 -29 90 -28 117 3 138 25 16
25 17 8 37 -10 11 -33 26 -50 34 -18 7 -33 15 -33 17 0 2 12 11 26 21 20 13
32 14 52 7 15 -6 39 -13 54 -16 18 -4 30 -15 33 -29 4 -13 16 -27 28 -32 24
-11 25 -27 12 -133 l-6 -52 -56 6 c-50 6 -55 5 -51 -12 2 -15 13 -20 55 -22
l53 -3 -7 -172 c-3 -95 -7 -174 -9 -176 -1 -1 -69 4 -151 13 -81 9 -151 16
-155 16 -5 0 -8 9 -8 20 0 13 -7 20 -20 20 -11 0 -20 -6 -20 -12 0 -9 -21 -13
-73 -13 -58 -1 -75 3 -85 17 -16 22 -55 24 -71 4 -15 -17 -13 -18 123 -46 55
-11 100 -21 101 -23 1 -1 -1 -71 -3 -154 -5 -177 10 -163 -138 -132 -56 11
-115 18 -135 15 -25 -4 -40 -1 -49 9 -12 15 -110 55 -135 55 -8 0 -15 -7 -15
-15 0 -9 20 -20 55 -30 l55 -16 0 -74 c0 -41 4 -85 10 -99 6 -17 6 -26 0 -26
-15 0 -12 -36 5 -50 13 -11 15 3 15 114 0 117 1 127 18 122 23 -7 227 -52 275
-60 36 -7 37 -8 37 -48 0 -35 2 -39 15 -28 8 7 15 24 15 38 0 24 1 25 53 18
28 -4 90 -9 137 -13 73 -5 87 -3 100 12 13 15 11 17 -28 14 -22 -2 -44 0 -48
4 -12 11 -99 8 -111 -4 -9 -9 -19 -6 -41 10 -17 11 -37 21 -46 21 -14 0 -15
18 -9 148 3 81 8 150 12 154 4 4 75 0 159 -9 l152 -17 0 -153 c0 -129 2 -153
15 -153 8 0 15 -9 15 -19 0 -17 10 -20 73 -26 39 -4 120 -5 180 -3 l107 3 0
-143 c0 -111 3 -143 13 -140 16 6 29 121 25 216 l-3 72 45 0 c46 0 198 15 258
25 l32 6 0 -150 c0 -95 -4 -152 -11 -156 -6 -4 -38 -10 -71 -13 -56 -5 -59 -6
-42 -19 13 -10 35 -13 67 -10 44 4 47 3 47 -20 0 -33 32 -27 40 7 5 21 14 26
57 33 39 6 51 12 46 23 -4 11 -16 13 -54 8 l-49 -7 0 152 c0 113 3 153 13 155
6 2 73 15 147 29 74 14 144 29 154 33 18 7 19 2 12 -147 -4 -84 -9 -157 -12
-160 -2 -4 -45 -15 -96 -25 -92 -18 -92 -18 -53 -26 25 -6 56 -5 82 2 70 17
76 15 69 -27 -3 -21 -8 -73 -12 -115 -3 -43 -11 -84 -18 -92 -10 -13 -143 -45
-260 -62 l-48 -7 7 52 c6 41 4 51 -8 51 -17 0 -27 -29 -27 -77 0 -28 -3 -33
-25 -33 -16 0 -25 -6 -25 -15 0 -9 9 -15 23 -15 20 0 23 -4 19 -30 -3 -23 0
-30 12 -30 10 0 16 9 16 23 0 12 4 27 8 32 4 6 75 24 159 40 l152 30 -6 -30
c-4 -16 -13 -61 -22 -100 l-16 -70 -69 -17 c-38 -10 -71 -20 -74 -23 -15 -14
14 -17 64 -6 30 7 58 11 60 8 10 -10 -50 -139 -70 -152 -18 -11 -214 -55 -248
-55 -6 0 -8 10 -4 25 5 19 3 23 -8 19 -8 -3 -17 -16 -20 -28 -6 -26 -24 -30
-195 -42 l-94 -7 7 41 c5 34 3 42 -9 42 -11 0 -15 -11 -15 -40 l0 -40 -140 0
-139 0 -7 50 c-4 33 -11 50 -20 50 -10 0 -13 -8 -9 -25 3 -14 7 -36 10 -50 6
-29 15 -28 -133 -13 l-115 11 -19 46 c-11 25 -28 55 -37 66 l-16 20 24 -20
c19 -17 38 -20 110 -21 47 0 100 -3 117 -7 17 -5 43 -3 60 3 45 18 165 13 226
-8 33 -12 62 -16 74 -11 14 5 36 0 65 -13 34 -16 63 -20 124 -19 97 2 140 14
180 52 17 16 55 41 85 56 29 16 58 35 63 44 13 20 1 69 -16 69 -7 0 -28 11
-46 24 -19 14 -46 28 -61 31 -21 5 -32 16 -44 50 -14 34 -23 45 -47 50 -25 6
-29 11 -29 41 0 26 -4 34 -18 34 -30 0 -49 -31 -57 -92 -7 -65 -9 -66 -94 -46
-63 14 -87 37 -71 67 9 18 7 22 -15 31 -15 6 -51 13 -81 16 -51 6 -56 5 -101
-30 -51 -39 -55 -41 -84 -26 -27 15 -89 -4 -119 -35 -13 -14 -33 -25 -44 -25
-11 0 -30 -10 -43 -22 -19 -18 -38 -22 -103 -25 -127 -5 -169 -33 -118 -76 33
-29 64 -77 65 -102 1 -11 11 -42 22 -68 l21 -48 -38 7 c-92 15 -219 47 -239
60 -22 14 -89 141 -80 151 3 3 45 -4 94 -15 48 -12 110 -24 138 -28 46 -6 49
-6 36 9 -7 10 -23 17 -35 17 -33 0 -239 49 -249 59 -9 9 -59 193 -54 197 1 1
49 -9 107 -22 58 -13 126 -27 153 -30 53 -7 58 -13 67 -64 3 -21 12 -36 21
-38 14 -2 15 4 9 43 -7 45 -7 46 19 41 14 -3 70 -10 123 -16 77 -9 102 -9 120
2 20 11 6 14 -119 28 -78 8 -144 18 -148 22 -4 4 -12 61 -18 128 -7 78 -14
119 -21 117 -11 -4 -12 -137 -2 -208 7 -42 25 -42 -174 -2 -69 13 -130 30
-136 36 -7 7 -17 54 -23 106 -10 88 -22 123 -37 108 -4 -3 0 -51 8 -107 7 -55
10 -100 6 -100 -10 0 -164 49 -225 72 -50 19 -52 20 -62 71 -12 58 -31 200
-27 204 1 1 46 -13 100 -33 54 -19 100 -33 102 -32 11 12 -35 39 -113 67 l-93
33 0 160 c0 87 4 157 8 154 4 -2 31 -14 60 -25 50 -20 52 -20 52 -2 0 13 -16
24 -58 39 -66 24 -62 8 -42 173 9 75 4 149 -10 149 -4 0 -12 -46 -19 -102 -19
-159 -22 -178 -32 -178 -5 0 -59 25 -119 55 -106 53 -110 56 -110 88 0 30 14
129 26 190 4 20 2 27 -9 27 -20 0 -23 -11 -38 -124 -7 -53 -16 -96 -19 -96 -3
0 -5 -79 -5 -175 0 -96 -1 -175 -3 -175 -5 0 -92 59 -144 99 l-48 35 0 159 0
159 33 -24 c47 -36 57 -41 57 -27 0 6 -19 28 -41 49 l-42 38 23 149 c26 162
27 196 11 201 -6 2 -11 10 -11 19 0 8 -23 40 -50 71 -60 67 -66 84 -46 139 13
38 12 53 -4 53 -4 0 -12 -18 -19 -40 -6 -22 -17 -39 -24 -37 -7 1 -11 -6 -9
-18 2 -11 3 -24 4 -30 0 -5 -11 -62 -26 -126 -14 -64 -26 -126 -26 -137 0 -40
-18 -31 -46 23 -27 51 -44 69 -44 45 0 -14 37 -87 62 -122 11 -16 17 -36 14
-46 -4 -10 -7 -75 -7 -145 -1 -70 -3 -127 -5 -127 -2 0 -18 28 -35 63 -30 59
-32 70 -40 226 -5 90 -10 165 -12 168 -10 9 -14 -156 -6 -244 13 -144 71 -366
134 -508 56 -128 80 -175 88 -175 5 0 6 7 3 15 -3 8 -9 23 -13 32 -4 10 22
-13 57 -51 45 -48 72 -86 87 -126 11 -31 28 -72 38 -91 15 -33 14 -32 -24 11
-22 25 -41 40 -41 35 0 -6 26 -40 58 -76 31 -37 77 -94 101 -128 24 -34 46
-59 49 -56 3 3 -5 19 -17 36 -27 36 -22 34 80 -39 46 -32 82 -69 114 -116 43
-63 44 -67 17 -47 -33 23 -42 26 -42 13 0 -5 10 -14 22 -19 13 -6 51 -34 85
-62 35 -28 63 -49 63 -46 0 11 196 -94 215 -116 21 -24 16 -22 -48 19 -54 33
-58 20 -5 -16 160 -110 408 -196 688 -238 141 -22 470 -25 610 -5 286 39 585
137 675 221 22 21 87 59 145 86 103 48 227 131 303 202 65 63 40 54 -40 -13
-42 -35 -79 -63 -80 -61 -2 2 18 34 43 72 30 45 62 79 93 98 25 16 63 42 84
58 40 32 46 31 21 -7 -9 -14 -12 -25 -8 -25 5 0 25 23 44 52 19 29 65 86 103
127 37 41 67 81 67 88 0 8 -18 -8 -40 -35 -21 -28 -43 -53 -48 -56 -5 -3 7 34
26 82 28 71 46 99 98 154 35 36 64 65 64 63 0 -2 -9 -24 -20 -50 -23 -53 -24
-65 -10 -65 5 0 9 3 8 8 -4 11 56 148 105 242 50 94 86 201 112 330 9 47 25
122 34 167 10 45 15 86 10 90 -16 17 -25 189 -12 239 7 27 13 61 13 76 0 15 7
34 16 42 8 9 11 16 7 16 -5 0 -17 42 -27 93 -9 50 -28 131 -42 179 -13 48 -24
97 -24 109 0 47 -22 148 -37 166 -14 17 -14 17 -9 0 3 -10 9 -37 12 -60 5 -38
2 -35 -30 36 -19 43 -44 92 -54 110 -11 18 -22 59 -25 92 l-6 60 36 -73 c19
-40 38 -70 41 -68 9 9 -85 192 -142 278 -61 90 -150 195 -139 163 6 -17 5 -18
-10 -7 -14 12 -15 10 -7 -20 25 -99 29 -100 -87 12 -59 58 -109 113 -111 123
-4 18 -22 24 -22 7 0 -5 -21 5 -47 24 -72 50 -83 31 -12 -20 42 -31 59 -50 55
-60 -3 -9 -6 -25 -6 -37 -1 -53 -15 -51 -85 6 -38 31 -73 53 -78 50 -6 -4 9
-22 33 -42 25 -20 59 -49 77 -66 l33 -30 -31 -54 -31 -53 -23 22 c-26 25 -30
5 -5 -25 12 -14 7 -22 -38 -68 l-51 -51 -38 44 c-20 25 -75 84 -120 131 -46
47 -80 89 -76 92 3 4 1 7 -5 7 -6 0 -47 31 -91 69 -44 38 -105 88 -135 112
l-56 43 27 28 26 27 51 -33 c28 -18 56 -35 62 -39 6 -3 11 1 11 9 0 8 -24 29
-53 46 l-53 32 16 27 16 28 79 -40 c50 -25 78 -35 78 -26 0 7 -33 29 -74 49
-67 33 -73 39 -69 62 3 14 9 26 13 26 4 0 40 -14 80 -31 40 -17 74 -28 77 -25
11 11 -10 25 -81 52 -58 22 -75 33 -79 51 -5 27 5 29 63 8 49 -17 64 -19 56
-6 -3 5 -23 12 -43 16 -21 4 -42 10 -48 14 -23 16 -168 53 -297 75 -25 5 -38
12 -38 22 0 10 6 14 18 10 9 -2 53 -7 97 -11 115 -10 85 11 -35 25 -138 16
-137 30 0 30 80 -1 120 -5 133 -14 25 -19 21 -30 -5 -12 -31 22 -42 20 -21 -4
22 -23 64 -24 55 0 -3 9 5 6 21 -9 15 -14 27 -30 27 -37 0 -7 22 -14 55 -19
47 -5 57 -11 75 -39 11 -19 20 -43 20 -56 0 -12 9 -33 20 -47 24 -30 26 -78 5
-87 -9 -3 -15 -18 -15 -40 0 -31 -4 -36 -32 -44 -43 -11 -52 -30 -44 -86 6
-40 13 -51 42 -68 23 -13 37 -31 41 -49 7 -34 16 -36 43 -9 27 27 54 16 46
-21 -7 -35 22 -74 69 -89 35 -12 75 -6 86 13 8 12 39 -44 39 -70 0 -13 3 -14
12 -5 9 9 9 20 1 45 -25 73 -26 77 -6 71 11 -4 7 4 -13 23 -17 15 -36 36 -43
45 -10 14 -9 16 8 11 23 -6 26 0 11 27 -11 21 -5 32 58 98 l32 35 58 -12 c31
-7 67 -19 79 -27 12 -8 29 -14 37 -14 9 0 46 -28 83 -62 37 -35 59 -52 50 -38
-20 29 -22 44 -4 34 7 -4 9 -3 4 2 -5 5 -12 9 -15 9 -13 0 -32 16 -32 27 0 6
7 5 18 -3 21 -17 15 -9 -41 62 -20 25 -33 50 -29 54 4 5 1 5 -6 1 -9 -6 -8
-14 7 -35 11 -15 27 -34 36 -41 8 -7 15 -17 15 -22 0 -5 -24 14 -52 44 -29 29
-86 80 -127 113 -41 33 -77 67 -79 75 -3 8 17 -5 44 -30 64 -60 123 -104 130
-98 2 3 -30 32 -71 64 -42 32 -81 67 -87 77 -7 14 -12 16 -18 7 -6 -9 -12 -9
-29 1 -11 8 -21 17 -21 21 0 20 -309 218 -341 218 -9 0 -69 25 -133 56 -65 31
-120 54 -123 50 -4 -3 -1 -6 5 -6 6 0 9 -6 6 -14 -4 -9 7 -15 35 -20 23 -3 41
-11 41 -16 0 -5 12 -13 27 -16 24 -6 143 -91 143 -102 0 -2 -15 5 -32 17 -80
50 -108 62 -126 52 -12 -7 -22 -5 -33 5 -12 11 -52 17 -145 20 -71 3 -133 10
-139 15 -5 6 -2 9 10 10 11 1 1 5 -23 10 -33 6 -65 3 -144 -17 -55 -14 -102
-23 -104 -21 -2 2 27 15 66 28 38 13 66 27 61 32 -8 8 -109 -26 -179 -62 -23
-12 -42 -19 -42 -16 0 2 32 27 70 54 39 27 67 52 62 55 -11 7 -72 -33 -121
-77 l-35 -32 20 31 c28 45 71 94 83 94 6 0 11 5 11 10 0 6 -15 10 -34 10 -19
0 -38 -4 -41 -10 -3 -5 1 -10 9 -10 11 0 6 -13 -20 -47 -20 -27 -38 -50 -39
-52 -2 -1 3 21 11 50 17 65 16 59 5 59 -5 0 -17 -26 -27 -57 l-17 -58 -15 58
c-8 31 -19 57 -24 57 -6 0 -8 -10 -5 -22 3 -13 9 -36 12 -53 l7 -30 -32 38
c-17 20 -41 42 -52 48 -21 11 -21 11 1 -17 11 -16 33 -45 49 -63 25 -32 22
-31 -40 16 -64 49 -104 70 -114 60 -3 -2 25 -23 61 -47 36 -23 65 -44 65 -45
0 -2 -35 12 -77 31 -43 19 -85 34 -93 35 -10 0 -9 3 5 10 14 7 7 8 -28 4 -26
-2 -57 -11 -70 -19 -17 -11 -45 -13 -121 -9 l-99 6 34 18 c27 15 47 17 98 12
47 -4 62 -3 57 5 -4 7 -24 12 -44 12 l-37 1 25 14 c22 13 23 14 5 14 -11 0
-28 -4 -39 -10z m-106 -48 c-28 -15 -149 -37 -138 -25 13 12 110 43 138 43
l35 0 -35 -18z m365 -47 c36 -15 65 -28 63 -29 -2 -2 -46 7 -98 19 -52 12 -88
25 -80 28 28 12 50 8 115 -18z m-453 -12 c-13 -10 -58 -24 -99 -31 -42 -7 -83
-15 -92 -18 -9 -3 3 7 26 22 42 26 100 42 158 44 l30 1 -23 -18z m246 9 c24
-15 -14 -21 -126 -21 -96 1 -105 2 -88 15 22 17 191 21 214 6z m142 -22 c30
-8 28 -8 -14 -4 -27 3 -63 5 -80 5 -23 0 -27 3 -16 9 14 10 41 7 110 -10z
m635 0 c-22 -4 -53 -8 -70 -7 l-30 0 30 8 c17 4 48 8 70 8 l40 0 -40 -9z
m-811 -29 c-5 -5 -56 -11 -112 -13 -64 -2 -106 -7 -110 -14 -5 -8 -13 -9 -22
-3 -17 11 -6 25 25 33 40 9 229 7 219 -3z m186 0 c47 -6 39 -7 -58 -9 -73 -1
-111 3 -107 9 7 11 84 12 165 0z m700 0 c0 -6 -38 -9 -97 -8 -86 1 -91 2 -43
8 88 11 140 11 140 0z m-964 -34 c48 6 54 5 48 -10 -3 -9 -8 -16 -11 -16 -3 0
-62 -11 -131 -25 -68 -14 -127 -24 -129 -21 -3 2 0 13 6 23 10 19 77 46 92 37
5 -3 21 2 36 10 16 8 29 10 31 5 2 -5 28 -6 58 -3z m220 -7 c-60 -4 -119 -10
-132 -13 -23 -6 -32 3 -17 17 3 4 63 6 132 6 l126 -2 -109 -8z m778 -4 c5 -13
0 -15 -30 -9 -20 4 -82 10 -138 14 l-101 7 131 2 c111 1 133 -1 138 -14z
m-697 -11 c-3 -3 -12 -4 -19 -1 -8 3 -5 6 6 6 11 1 17 -2 13 -5z m480 0 c-3
-3 -12 -4 -19 -1 -8 3 -5 6 6 6 11 1 17 -2 13 -5z m-632 -24 c-49 -10 -92 -16
-94 -14 -15 14 61 31 144 32 27 0 10 -6 -50 -18z m843 3 c23 -5 31 -23 10 -22
-7 0 -53 9 -103 20 l-90 19 80 -6 c44 -3 90 -8 103 -11z m-958 -15 c0 -8 -49
-26 -123 -46 -67 -19 -130 -36 -139 -39 -13 -4 -18 0 -18 15 0 24 4 26 148 57
129 28 132 28 132 13z m135 -22 c-60 -18 -112 -28 -114 -23 -5 14 4 18 95 37
134 28 142 22 19 -14z m730 14 c53 -11 99 -20 101 -20 2 0 4 -7 4 -16 0 -11
-6 -13 -22 -8 -13 4 -66 20 -118 35 -113 33 -99 37 35 9z m250 -5 c141 -28
155 -33 155 -60 l0 -24 -67 23 c-38 12 -101 31 -140 41 -45 12 -73 24 -73 32
0 9 8 12 23 9 12 -3 58 -12 102 -21z m-840 5 c-11 -5 -67 -27 -125 -49 -77
-30 -106 -37 -112 -28 -9 14 -15 11 127 53 109 32 149 41 110 24z m566 -31
c107 -31 133 -44 108 -54 -8 -3 -63 15 -124 40 -60 24 -105 44 -99 45 6 0 58
-14 115 -31z m-640 -39 c-76 -40 -118 -57 -125 -50 -5 5 -7 12 -4 15 8 8 221
94 233 94 6 0 -42 -26 -104 -59z m146 47 c-10 -7 -61 -42 -112 -79 -79 -56
-96 -64 -110 -54 -15 11 0 22 106 79 114 61 161 83 116 54z m434 -25 c52 -21
106 -45 121 -53 25 -13 26 -15 10 -25 -13 -8 -40 3 -127 53 -60 35 -107 63
-104 63 3 0 48 -17 100 -38z m-57 -62 c90 -68 97 -75 77 -84 -20 -8 -33 1
-114 84 -51 52 -85 89 -77 84 8 -6 59 -44 114 -84z m-719 67 c0 -8 -206 -93
-251 -104 -16 -3 -23 1 -27 16 -3 12 -2 23 2 25 4 3 59 21 122 40 109 34 154
41 154 23z m344 -83 c-35 -49 -64 -91 -65 -93 -2 -2 -15 0 -30 3 -27 7 -26 8
61 96 49 49 91 88 93 86 2 -2 -25 -44 -59 -92z m106 -15 c-9 -57 -17 -104 -18
-105 -1 -1 -14 0 -28 3 l-26 5 41 103 c22 57 42 102 44 100 2 -2 -4 -50 -13
-106z m42 -107 c-10 -2 -21 -1 -24 2 -3 2 1 53 8 113 l14 108 10 -110 c9 -103
9 -110 -8 -113z m84 6 c-33 -14 -38 -7 -45 60 -4 37 -9 87 -12 112 -4 37 2 27
34 -60 34 -92 37 -106 23 -112z m163 30 c-3 -4 -15 -8 -27 -8 -17 1 -37 25
-85 98 l-62 97 89 -89 c50 -49 88 -93 85 -98z m93 86 c36 -21 41 -32 19 -40
-12 -5 -151 90 -191 129 -9 9 90 -43 172 -89z m326 49 c101 -32 108 -36 101
-56 -3 -12 -7 -23 -9 -24 -1 -2 -61 20 -133 49 -81 32 -132 57 -132 66 0 17
25 12 173 -35z m-877 -42 c-57 -57 -83 -77 -97 -74 -10 3 -19 8 -19 12 0 6
181 141 190 141 2 0 -31 -35 -74 -79z m117 -3 c-19 -46 -38 -91 -40 -100 -6
-19 -9 -20 -35 -10 -15 6 -9 20 44 100 33 50 62 92 64 92 2 0 -13 -37 -33 -82z
m241 -60 c27 -46 27 -46 6 -53 -12 -4 -23 -5 -24 -3 -3 3 -55 138 -71 183 -9
24 50 -60 89 -127z m-621 98 c8 -21 -240 -141 -259 -125 -30 24 -11 39 114 88
70 27 130 50 133 51 4 0 9 -6 12 -14z m1096 -44 c63 -26 116 -52 118 -58 2 -5
-3 -18 -10 -28 -12 -17 -21 -14 -138 47 -113 59 -146 88 -101 87 10 0 68 -22
131 -48z m-1402 -37 c-1 -1 -49 -25 -107 -54 -104 -52 -148 -81 -122 -81 14 0
74 29 82 39 3 4 38 22 79 40 l75 34 14 -21 c8 -12 21 -22 28 -22 8 0 14 -4 14
-9 0 -6 56 20 125 56 112 58 164 73 153 44 -2 -5 -52 -41 -112 -81 l-108 -71
-24 22 c-27 25 -32 15 -9 -18 14 -19 12 -22 -25 -48 -21 -15 -41 -33 -44 -40
-3 -8 -13 -11 -26 -8 -13 4 -39 -6 -71 -26 -28 -17 -52 -31 -54 -31 -2 0 -5
14 -7 32 -2 23 -11 36 -33 48 -35 20 -95 77 -95 91 0 5 -11 9 -24 9 -13 0 -29
7 -36 15 -7 8 -19 15 -26 15 -22 0 -16 16 17 44 40 34 50 33 42 -5 -6 -30 -5
-31 16 -19 13 6 25 9 28 6 3 -2 15 -1 27 4 11 5 64 27 116 49 l95 40 7 -27 c4
-14 6 -27 5 -27z m1360 -21 c56 -30 105 -58 107 -63 3 -4 -5 -18 -18 -30 l-23
-22 -112 77 c-94 63 -110 78 -100 90 15 18 18 17 146 -52z m-968 13 c8 -11 -8
-30 -76 -88 -48 -41 -92 -77 -98 -81 -6 -4 -25 3 -43 14 l-32 20 40 29 c51 37
183 119 191 119 4 0 12 -6 18 -13z m883 -53 c46 -31 93 -65 106 -74 l22 -18
-32 -20 -32 -21 -69 62 c-38 34 -81 71 -95 83 -25 21 -24 44 3 44 8 0 52 -25
97 -56z m-813 17 c8 -5 9 -11 3 -15 -6 -3 -29 -29 -52 -56 -51 -61 -26 -57 41
7 38 36 50 43 72 38 l25 -7 -54 -86 c-30 -47 -54 -90 -54 -94 0 -11 -31 -10
-67 3 -24 8 -30 15 -26 30 6 23 -9 25 -27 4 -11 -13 -16 -13 -44 2 -17 8 -33
17 -35 19 -4 4 61 64 138 128 45 37 57 42 80 27z m751 -72 c50 -44 90 -84 90
-89 0 -13 -71 -34 -80 -24 -40 44 -140 168 -140 174 0 5 8 11 18 13 9 3 18 5
20 6 1 0 43 -35 92 -80z m-91 -35 c39 -47 71 -89 71 -94 0 -9 -79 -35 -85 -28
-9 9 -105 182 -105 189 0 6 17 14 42 18 4 0 39 -38 77 -85z m-510 57 c11 -7 7
-26 -22 -102 l-35 -94 -38 2 c-21 2 -41 6 -45 10 -10 10 99 193 115 193 6 0
17 -4 25 -9z m411 -86 c29 -53 50 -99 46 -102 -3 -3 -25 -7 -47 -7 l-42 -1
-33 97 c-32 97 -32 97 -11 101 12 2 25 5 28 6 3 0 30 -42 59 -94z m-318 -28
l-14 -102 -55 3 c-46 3 -53 7 -48 20 3 10 20 55 36 102 l30 86 33 -4 32 -4
-14 -101z m101 36 c4 -38 7 -85 7 -105 l0 -38 -46 0 -47 0 6 38 c4 20 9 67 13
105 7 65 8 67 34 67 26 0 27 -2 33 -67z m116 -30 c16 -54 29 -98 28 -99 -1 -1
-23 -4 -49 -6 -56 -6 -54 -10 -64 115 l-6 87 30 0 c30 0 31 -2 61 -97z m-767
-35 c-30 -31 -33 -38 -17 -38 10 0 33 13 50 29 l30 29 46 -22 c51 -25 111 -42
181 -51 26 -3 50 -10 53 -16 4 -5 15 -9 27 -9 20 0 21 -15 2 -64 -4 -10 -1
-16 9 -16 9 0 21 16 27 36 10 30 16 35 34 30 11 -3 36 -6 55 -6 l34 0 -5 -45
c-3 -25 -4 -45 -3 -45 2 0 10 -3 19 -6 13 -5 16 1 16 32 0 53 8 60 63 59 l47
0 0 -55 c0 -59 11 -87 29 -76 15 10 14 50 -4 93 -8 20 -14 37 -13 39 10 9 130
6 140 -4 16 -16 29 -15 22 2 -4 10 5 16 28 21 18 3 41 9 50 11 13 4 26 -13 57
-73 28 -56 41 -73 46 -62 4 10 -7 43 -25 79 -17 34 -30 63 -28 65 7 5 72 25
84 25 7 0 41 -40 76 -90 34 -49 65 -90 69 -90 23 0 12 27 -44 107 l-63 89 40
17 40 17 46 -44 c62 -60 87 -49 26 13 l-45 46 34 22 34 23 76 -62 c42 -33 101
-83 131 -111 l54 -49 -27 -36 -27 -36 39 24 39 24 99 -104 c54 -57 106 -114
114 -127 18 -27 17 -28 -69 -83 l-47 -29 -33 47 c-31 46 -140 191 -166 222
-11 13 -12 11 -7 -14 3 -16 45 -82 92 -147 47 -66 84 -121 82 -123 -7 -6 -83
-43 -121 -59 l-37 -16 -42 77 c-50 92 -47 88 -60 75 -7 -7 0 -32 25 -82 20
-39 36 -75 36 -79 0 -5 -27 -17 -60 -26 -38 -11 -60 -22 -60 -32 0 -18 6 -18
75 6 32 11 60 20 61 20 10 0 144 -297 144 -318 0 -7 -192 -73 -212 -72 -3 0
-25 61 -49 135 -23 74 -46 135 -51 135 -21 0 -17 -37 20 -151 28 -88 36 -126
28 -131 -11 -6 -216 -48 -237 -48 -5 0 -9 10 -9 23 0 12 -14 90 -30 172 -17
83 -30 151 -30 153 0 1 8 2 17 2 9 0 45 5 80 11 45 8 63 15 63 26 0 13 -8 14
-42 9 -24 -4 -61 -10 -84 -13 l-41 -5 -13 61 c-7 34 -17 64 -22 67 -21 13 -26
-14 -14 -73 l13 -62 -51 -6 c-28 -3 -79 -7 -113 -8 -38 -1 -63 -6 -63 -13 0
-18 65 -24 153 -14 44 5 82 9 83 7 1 -1 13 -69 28 -152 15 -82 29 -160 31
-172 4 -19 1 -23 -18 -23 -16 0 -23 -6 -23 -20 0 -15 5 -18 23 -14 27 7 27 7
53 -191 12 -101 15 -152 8 -156 -10 -6 -54 -12 -210 -25 l-78 -7 0 27 c0 14
-2 26 -4 26 -18 0 -36 -15 -36 -31 0 -17 -8 -19 -64 -19 -44 0 -67 -5 -76 -15
-11 -13 -15 -13 -33 0 -13 9 -44 15 -78 15 -55 0 -56 0 -51 26 2 14 0 29 -5
33 -6 3 -14 22 -17 41 -5 26 -4 31 3 20 6 -8 11 -23 11 -33 0 -15 7 -18 43
-15 41 3 42 4 45 43 1 22 -4 58 -11 80 -13 37 -13 42 5 60 10 11 34 40 52 65
28 40 37 45 70 45 28 0 43 7 61 27 12 14 36 33 53 42 22 12 36 30 51 71 12 31
21 64 21 75 0 10 5 31 11 47 l11 28 13 -35 c8 -19 14 -49 14 -66 1 -33 25 -73
37 -62 4 4 3 18 -3 30 -7 15 -6 30 4 48 11 23 10 35 -8 88 -11 34 -23 62 -26
62 -2 0 -13 -5 -24 -10 -14 -8 -25 -7 -41 5 -13 8 -40 15 -61 15 -32 0 -38 3
-33 16 3 9 6 21 6 28 0 25 80 105 118 117 20 6 52 21 71 32 23 14 52 20 92 21
55 1 59 3 76 33 17 32 37 43 84 43 15 0 32 7 39 16 8 8 21 19 29 24 10 5 -2
-27 -31 -86 -47 -94 -47 -94 -33 -139 24 -83 56 -114 76 -74 28 59 35 87 28
129 -5 29 -2 63 7 97 12 42 22 58 58 84 25 17 59 49 77 72 32 39 32 40 19 90
-9 36 -10 52 -2 55 17 5 62 43 62 51 0 5 -32 11 -70 13 -84 6 -178 -13 -201
-41 -14 -17 -26 -19 -90 -16 -41 2 -81 6 -90 10 -9 3 -21 0 -28 -8 -9 -11 -21
-12 -59 -5 -70 14 -122 16 -128 7 -3 -5 -29 -9 -58 -9 -28 0 -56 -4 -62 -9 -5
-6 -31 -13 -59 -16 -46 -6 -53 -4 -88 23 -30 24 -52 32 -102 37 -36 4 -65 11
-65 16 0 4 -20 8 -45 7 -25 0 -49 2 -52 6 -4 3 6 19 22 36 41 42 23 60 -62 60
-50 0 -70 5 -93 22 -29 21 -30 21 -126 5 -54 -9 -101 -22 -105 -28 -5 -9 -18
-6 -47 13 l-39 26 -33 -21 -33 -21 28 42 c28 43 42 54 31 27 -3 -8 24 7 59 34
l65 50 34 -22 34 -22 -36 -37z m2187 -201 l74 -75 -6 -62 c-3 -34 -8 -64 -11
-67 -2 -3 -20 12 -38 33 -18 22 -68 75 -111 120 l-77 81 11 52 11 51 36 -29
c21 -16 70 -63 111 -104z m192 -95 c36 -55 68 -144 69 -191 0 -8 -14 7 -31 35
-17 27 -54 77 -81 112 -39 50 -51 75 -59 120 -5 31 -9 59 -9 62 1 10 72 -77
111 -138z m-239 -36 c48 -55 88 -106 88 -113 0 -17 -47 -110 -59 -117 -5 -4
-31 22 -57 56 -26 35 -74 93 -106 130 l-59 67 32 56 c37 66 26 72 161 -79z
m249 -121 l61 -90 -6 -58 c-9 -87 -17 -96 -46 -45 -13 24 -48 78 -78 122 -53
78 -53 79 -46 135 11 93 8 95 115 -64z m-3314 101 c-3 -14 -18 -26 -36 -26
-11 0 -9 4 5 15 10 8 14 15 8 15 -6 0 -17 -7 -24 -15 -7 -8 -9 -15 -6 -15 4 0
-4 -15 -17 -32 -13 -18 -37 -64 -53 -101 -16 -38 -39 -78 -51 -89 l-23 -21 0
29 c1 16 11 48 23 71 48 91 99 173 114 181 20 12 63 3 60 -12z m2906 -34 c71
-80 157 -197 157 -213 0 -15 -107 -126 -113 -118 -2 2 -32 47 -67 99 -34 52
-78 114 -96 137 -19 23 -34 43 -34 45 0 8 95 106 101 105 3 -1 27 -26 52 -55z
m-27 -278 c24 -39 44 -74 44 -77 0 -7 -145 -107 -154 -107 -3 0 -17 23 -32 51
-14 28 -52 96 -85 152 -33 55 -58 102 -56 104 2 2 33 23 67 48 l64 44 54 -72
c29 -40 73 -104 98 -143z m361 106 c27 -41 61 -96 76 -122 l28 -47 -36 -71
c-19 -38 -39 -70 -43 -70 -4 0 -20 26 -37 57 -16 32 -51 92 -76 134 l-47 76
28 44 c15 25 31 55 35 68 8 27 8 27 72 -69z m-577 -171 c38 -69 70 -129 70
-133 0 -8 -190 -100 -194 -94 -2 1 -11 23 -20 48 -10 25 -40 96 -69 159 -28
63 -47 116 -42 118 6 2 42 19 80 37 l70 33 17 -21 c9 -11 49 -78 88 -147z
m833 -79 c13 -40 14 -61 5 -121 -11 -72 -11 -73 -24 -44 -7 17 -34 78 -59 137
l-47 108 13 72 13 72 42 -88 c23 -48 49 -110 57 -136z m-315 27 c34 -61 62
-116 62 -122 0 -14 -116 -135 -129 -135 -5 0 -13 10 -17 23 -3 12 -34 77 -67
145 l-61 122 59 61 c70 70 55 80 153 -94z m-3498 -26 c-6 -27 -11 -71 -11 -98
0 -26 -2 -61 -6 -78 l-6 -30 -9 35 c-16 69 12 254 34 232 7 -7 6 -27 -2 -61z
m3747 -114 l47 -119 -43 -85 -44 -86 -37 104 c-20 57 -45 124 -56 149 l-20 45
40 77 c48 90 39 96 113 -85z m-406 -3 c33 -67 59 -128 59 -136 0 -8 -15 -25
-32 -38 -60 -44 -130 -90 -138 -90 -5 0 -14 17 -21 38 -6 20 -34 89 -61 152
-46 108 -48 116 -31 128 10 7 45 32 78 56 72 53 64 59 146 -110z m-213 -109
c29 -67 55 -135 58 -153 l7 -32 -107 -51 c-59 -28 -109 -50 -110 -48 -2 2 -16
47 -31 99 -15 52 -39 124 -52 159 -13 35 -22 66 -19 68 13 13 192 89 197 84 4
-3 29 -60 57 -126z m757 -18 c21 -88 26 -127 22 -179 -6 -67 -26 -129 -27 -82
0 12 -14 75 -30 140 -28 111 -30 123 -19 181 7 34 16 60 20 57 4 -2 19 -55 34
-117z m-241 -56 c20 -56 36 -111 36 -121 0 -10 -30 -50 -66 -89 l-67 -72 -52
158 -52 158 66 67 66 68 16 -33 c10 -18 33 -79 53 -136z m-781 27 c39 -109 79
-249 74 -255 -3 -2 -58 -22 -124 -43 l-118 -39 -11 42 c-21 77 -73 301 -71
302 11 5 205 63 213 64 6 0 23 -32 37 -71z m-249 -157 c20 -82 36 -159 36
-170 0 -23 3 -22 -160 -55 -105 -22 -116 -22 -122 -7 -5 13 -38 264 -42 320
-1 10 31 20 104 36 163 34 143 48 184 -124z m1231 -7 c15 -68 24 -131 21 -148
-9 -43 -79 -159 -87 -144 -3 7 -9 33 -13 58 -3 25 -16 88 -27 141 l-22 95 28
44 c15 24 34 60 43 79 13 33 15 34 22 15 5 -12 20 -75 35 -140z m-369 -19 l45
-140 -38 -33 c-44 -38 -137 -102 -150 -102 -5 0 -17 33 -27 73 -10 39 -30 110
-44 156 -25 81 -26 85 -8 95 10 6 51 34 90 62 48 35 73 48 79 40 4 -6 28 -74
53 -151z m-247 -47 c18 -57 52 -180 64 -235 4 -20 -8 -29 -106 -78 -61 -30
-116 -55 -123 -55 -7 0 -17 27 -24 68 -6 37 -21 110 -34 162 l-22 95 105 52
c59 28 109 52 113 52 3 1 15 -27 27 -61z m-3094 -102 c0 -10 -40 -229 -52
-286 -5 -24 -7 -22 -60 35 -87 95 -84 86 -63 200 10 55 24 123 31 152 l12 52
66 -71 c36 -39 66 -76 66 -82z m3594 -6 c12 -63 24 -126 27 -141 4 -20 -9 -39
-70 -105 l-74 -79 -6 40 c-4 22 -17 93 -29 158 l-23 118 70 74 c45 46 73 69
77 62 4 -7 16 -64 28 -127z m-769 13 c27 -98 61 -286 53 -294 -9 -9 -246 -89
-263 -89 -6 0 -10 14 -10 31 0 17 -9 92 -21 167 -11 75 -17 138 -12 140 31 12
229 80 235 81 4 1 12 -16 18 -36z m923 -237 c-5 -78 -11 -99 -47 -170 l-41
-81 -5 150 -5 150 45 75 45 76 7 -56 c4 -30 5 -95 1 -144z m-317 4 c9 -60 14
-115 11 -123 -3 -8 -47 -43 -98 -77 l-93 -62 -18 119 c-10 65 -20 136 -24 159
-6 40 -6 41 44 73 28 18 70 48 94 67 l43 34 12 -41 c7 -23 20 -90 29 -149z
m-876 1 c12 -84 18 -157 13 -161 -9 -9 -248 -60 -281 -60 -18 0 -21 8 -27 68
-3 37 -10 112 -16 166 -5 55 -8 100 -7 101 2 1 64 15 138 30 74 14 137 29 139
31 11 10 20 -30 41 -175z m-356 82 c10 -53 28 -304 22 -310 -8 -8 -97 -20
-216 -28 l-98 -7 -7 166 c-4 92 -5 170 -1 173 3 3 54 10 113 15 60 4 115 10
123 12 44 11 58 6 64 -21z m-341 -170 c3 -92 4 -170 1 -172 -9 -9 -175 -13
-248 -6 l-76 7 0 62 c0 35 3 111 7 169 l6 107 152 0 152 0 6 -167z m-1921
-181 l-4 -154 -40 39 c-22 21 -53 56 -69 77 -28 38 -29 42 -29 165 0 183 -2
181 79 97 l67 -71 -4 -153z m3252 209 c9 -48 19 -118 23 -154 l6 -65 -44 -23
c-24 -13 -80 -40 -124 -60 l-80 -37 -7 36 c-19 97 -36 277 -27 281 6 1 58 27
117 56 59 30 110 54 113 54 4 1 14 -39 23 -88z m445 -98 l1 -133 -72 -76 -73
-77 -5 154 -5 153 70 71 c54 55 72 68 77 56 4 -9 7 -76 7 -148z m-730 -18 c6
-41 14 -112 17 -158 l7 -83 -94 -31 c-52 -18 -117 -39 -145 -47 l-52 -14 -6
96 c-4 54 -9 124 -12 157 l-6 60 134 46 c73 26 136 47 139 48 4 0 12 -33 18
-74z m539 -302 c-13 -16 -149 -110 -171 -118 -9 -4 -12 31 -14 149 l-2 155 42
25 c23 13 67 43 97 66 l55 41 3 -152 c2 -110 -1 -155 -10 -166z m268 216 c-19
-81 -75 -237 -88 -245 -7 -4 -8 5 -3 26 4 17 13 65 20 105 8 49 23 91 46 128
19 30 35 54 37 52 2 -1 -4 -31 -12 -66z m-3920 -99 c16 -88 17 -101 4 -79 -9
15 -51 155 -64 214 -6 26 -3 24 20 -15 15 -25 32 -78 40 -120z m2797 63 c4
-54 7 -126 7 -160 l0 -61 -67 -16 c-100 -22 -244 -48 -248 -44 -1 2 -4 72 -6
157 l-4 153 145 30 c79 16 146 31 149 33 14 14 19 -4 24 -92z m-352 -150 l4
-141 -115 -11 c-63 -6 -139 -14 -167 -16 l-53 -5 0 160 0 160 58 1 c31 0 102
6 157 12 87 11 101 10 106 -3 4 -8 8 -79 10 -157z m-1796 -129 c0 -84 -2 -154
-5 -154 -3 0 -57 25 -121 56 -113 55 -117 58 -123 93 -8 47 -7 129 0 213 l7
66 121 -59 121 -60 0 -155z m1276 266 l149 0 0 -155 0 -155 -170 0 -170 0 0
153 c0 85 3 157 7 161 4 3 13 4 21 1 7 -3 81 -5 163 -5z m1513 -246 l-6 -72
-117 -56 c-65 -31 -122 -56 -127 -56 -6 0 -11 61 -11 153 l-2 153 87 38 c48
21 105 49 127 62 l40 24 7 -88 c4 -48 5 -119 2 -158z m-3275 14 c6 -41 18 -98
26 -128 l14 -53 -30 29 c-81 77 -108 127 -134 240 -14 60 -25 113 -25 119 0 5
31 -22 68 -61 67 -69 69 -72 81 -146z m3651 92 c-12 -57 -27 -117 -34 -134
-13 -30 -125 -160 -132 -153 -2 1 6 45 16 97 11 52 20 107 20 122 0 20 19 46
73 101 39 40 73 72 75 71 2 -1 -7 -48 -18 -104z m-670 -154 l0 -153 -42 -16
c-65 -25 -239 -77 -255 -77 -12 0 -14 7 -9 31 3 17 6 86 6 153 l0 121 143 46
c78 26 145 47 150 48 4 1 7 -68 7 -153z m-2843 27 c70 -47 71 -49 78 -100 3
-29 15 -87 25 -130 10 -43 17 -79 16 -81 -9 -8 -180 126 -188 148 -12 30 -48
197 -48 224 0 17 1 17 23 2 12 -9 54 -37 94 -63z m3352 7 c-5 -33 -16 -91 -25
-130 -14 -62 -21 -74 -57 -104 -42 -33 -139 -96 -150 -96 -3 0 -1 15 4 33 5
17 16 75 25 127 8 52 18 98 22 102 5 4 182 125 188 128 0 0 -3 -27 -7 -60z
m-3185 -109 c28 -15 81 -41 117 -56 l67 -29 11 -90 c7 -50 16 -108 20 -128 6
-27 6 -38 -3 -38 -6 1 -58 24 -116 53 l-105 53 -21 85 c-26 101 -38 179 -28
179 3 0 30 -13 58 -29z m2961 -28 c-16 -115 -46 -222 -65 -228 -10 -3 -20 -14
-23 -25 -3 -13 -1 -17 10 -13 12 5 14 1 8 -18 -13 -42 -56 -143 -72 -167 -12
-19 -211 -128 -219 -120 -4 5 64 200 73 208 4 4 34 18 66 31 32 13 63 31 68
41 12 23 13 23 -64 -12 -37 -16 -68 -30 -70 -30 -2 0 2 33 9 73 7 39 16 98 19
130 l7 58 61 27 c34 14 89 41 122 58 33 17 64 32 68 33 5 0 5 -20 2 -46z
m-289 -115 c-3 -18 -11 -74 -17 -124 -6 -51 -14 -96 -18 -102 -7 -10 -204 -76
-262 -87 l-36 -7 9 68 c6 45 6 70 -1 77 -15 15 -14 30 2 24 8 -3 13 9 15 37 2
22 6 44 10 47 4 3 63 23 131 43 69 20 132 41 140 46 27 16 32 11 27 -22z
m-2735 -86 c22 -14 40 -33 44 -50 3 -14 22 -60 41 -101 19 -41 33 -76 31 -77
-2 -2 -42 26 -90 62 -82 61 -90 71 -126 147 -62 132 -62 135 6 84 32 -24 74
-53 94 -65z m3175 51 c-29 -80 -65 -151 -87 -173 -32 -29 -161 -121 -166 -117
-2 2 10 35 26 73 15 38 33 82 37 97 7 20 37 47 104 92 52 35 96 64 97 65 1 0
-4 -17 -11 -37z m-2850 -290 c17 -48 34 -96 39 -107 6 -14 -18 -5 -96 35
l-104 54 -42 85 c-69 141 -71 138 59 75 l113 -54 31 -88z m281 -18 c5 -3 54
-198 51 -201 -2 -1 -59 16 -128 39 l-125 42 -31 85 c-53 144 -64 134 93 82 76
-25 139 -46 140 -47z m2083 66 c0 -16 -42 -145 -56 -173 -12 -23 -32 -33 -132
-64 -168 -51 -156 -49 -148 -28 4 11 14 48 22 84 8 36 17 75 19 88 3 12 13 22
23 23 9 0 69 18 132 39 125 41 140 45 140 31z m-2395 -158 c74 -36 100 -53
112 -77 8 -17 31 -52 49 -78 19 -27 32 -48 29 -48 -16 0 -149 74 -178 99 -31
28 -124 151 -114 151 3 0 49 -21 102 -47z m2538 10 c-65 -103 -101 -138 -186
-180 -47 -24 -88 -43 -92 -43 -3 0 6 17 19 37 19 28 22 39 13 45 -21 13 -36 9
-48 -14 -12 -22 -12 -22 16 -4 25 16 24 13 -12 -36 -37 -49 -46 -55 -129 -84
-49 -17 -101 -34 -115 -37 l-26 -7 18 38 c10 20 27 58 38 85 12 27 27 47 36
47 12 0 177 50 224 68 10 4 13 1 8 -11 -10 -26 22 -21 34 6 6 14 37 35 87 57
42 18 86 40 97 47 31 20 37 15 18 -14z m-2280 -112 l119 -39 38 -78 c21 -44
37 -80 36 -82 -5 -4 -180 59 -202 73 -28 18 -128 166 -111 165 1 0 55 -18 120
-39z m132 -201 c70 -24 97 -39 127 -70 21 -22 36 -40 32 -40 -30 0 -195 78
-224 106 -19 19 -32 34 -29 34 3 0 45 -14 94 -30z m1770 10 c-16 -18 -233
-116 -240 -108 -2 1 7 15 19 30 16 21 49 37 126 62 58 19 107 34 109 35 2 1
-4 -8 -14 -19z m-1483 -84 c106 -22 108 -23 138 -64 29 -41 30 -42 8 -38 -13
3 -59 13 -103 22 -86 18 -145 46 -185 89 l-25 28 30 -8 c17 -4 78 -17 137 -29z
m1231 -1 c-10 -13 -33 -31 -50 -40 -34 -17 -213 -59 -220 -52 -9 9 34 68 52
72 78 16 212 43 223 44 9 1 8 -6 -5 -24z m-923 -43 c73 -7 74 -7 84 -40 5 -18
6 -35 2 -39 -3 -4 -50 -2 -103 4 -99 10 -109 16 -144 76 -9 16 -6 17 38 12 26
-4 82 -10 123 -13z m641 -21 l-20 -38 -89 -12 c-48 -6 -105 -11 -126 -11 -38
0 -38 1 -32 32 3 17 8 34 11 36 3 3 55 9 117 14 62 4 118 10 123 12 31 13 35
5 16 -33z m-286 -23 c-4 -18 -13 -36 -19 -40 -15 -10 -198 -10 -213 0 -7 4
-16 22 -19 40 l-6 32 132 0 132 0 -7 -32z"/>
<path d="M1895 4320 c4 -6 11 -8 16 -5 14 9 11 15 -7 15 -8 0 -12 -5 -9 -10z"/>
<path d="M1441 4091 c-8 -14 -7 -22 4 -31 13 -11 15 -8 15 19 0 36 -5 39 -19
12z"/>
<path d="M1668 4043 c-21 -9 -38 -22 -38 -29 0 -17 1 -17 36 1 33 17 116 20
145 5 15 -8 19 -7 19 4 0 21 -10 25 -71 30 -37 4 -66 0 -91 -11z"/>
<path d="M1682 3978 c-39 -25 -60 -44 -54 -50 6 -6 37 8 81 37 39 25 71 48 71
50 0 15 -43 -1 -98 -37z"/>
<path d="M2136 3945 c-10 -7 -15 -18 -11 -24 10 -17 43 -13 54 8 17 31 -9 42
-43 16z"/>
<path d="M3228 3788 c-8 -20 28 -66 41 -53 7 7 3 20 -13 39 -17 22 -24 26 -28
14z"/>
<path d="M2620 3773 c1 -25 17 -33 46 -22 27 10 27 12 9 19 -26 11 -55 12 -55
3z"/>
<path d="M2748 3724 c4 -24 27 -43 38 -32 2 3 0 17 -5 32 -14 35 -40 35 -33 0z"/>
<path d="M3076 3348 c13 -46 21 -52 28 -24 8 31 1 46 -20 46 -11 0 -13 -6 -8
-22z"/>
<path d="M2820 2799 c0 -6 -12 -25 -27 -43 l-26 -31 30 -3 c34 -3 103 21 103
37 0 13 -49 51 -66 51 -8 0 -14 -5 -14 -11z"/>
<path d="M2634 2755 c-37 -34 -37 -35 -12 -35 23 0 26 -5 32 -46 3 -26 6 -71
6 -100 0 -55 8 -66 30 -39 8 10 11 42 9 100 l-4 85 32 6 c18 3 37 12 44 20 9
12 4 14 -35 14 -34 0 -46 4 -46 15 0 23 -14 18 -56 -20z"/>
<path d="M2781 2616 c-10 -39 -19 -49 -78 -89 -38 -24 -89 -53 -115 -65 -27
-11 -48 -23 -48 -26 0 -9 58 -36 77 -36 10 0 32 8 49 18 120 69 144 86 144 99
0 8 8 37 17 62 18 53 13 81 -15 81 -15 0 -22 -11 -31 -44z"/>
<path d="M2493 2395 c-10 -10 -9 -16 2 -25 16 -13 35 -5 35 15 0 19 -23 25
-37 10z"/>
<path d="M895 3469 c-4 -6 -5 -12 -2 -15 2 -3 7 2 10 11 7 17 1 20 -8 4z"/>
<path d="M857 3403 c-25 -36 -51 -93 -43 -93 6 0 61 90 69 113 10 27 2 20 -26
-20z"/>
<path d="M3910 1270 c-8 -5 -12 -12 -9 -15 4 -3 12 1 19 10 14 17 11 19 -10 5z"/>
<path d="M3450 1239 c0 -5 5 -7 10 -4 6 3 10 8 10 11 0 2 -4 4 -10 4 -5 0 -10
-5 -10 -11z"/>
<path d="M3535 1040 c3 -5 11 -10 16 -10 6 0 7 5 4 10 -3 6 -11 10 -16 10 -6
0 -7 -4 -4 -10z"/>
<path d="M3005 4460 c-4 -6 11 -10 39 -10 58 0 67 14 11 18 -24 1 -47 -2 -50
-8z"/>
<path d="M3370 4430 c8 -5 20 -10 25 -10 6 0 3 5 -5 10 -8 5 -19 10 -25 10 -5
0 -3 -5 5 -10z"/>
<path d="M3266 4342 c-17 -4 -16 -5 5 -16 24 -13 39 -12 39 4 0 11 -21 17 -44
12z"/>
<path d="M1423 4288 c-13 -6 -23 -15 -23 -20 0 -10 36 7 45 22 7 12 7 12 -22
-2z"/>
<path d="M3320 4290 c0 -11 70 -43 78 -36 5 5 -58 46 -70 46 -5 0 -8 -4 -8
-10z"/>
<path d="M1023 3973 c4 -3 -3 -18 -15 -32 l-23 -26 27 24 c24 21 29 41 11 41
-4 0 -3 -3 0 -7z"/>
<path d="M3930 3921 c0 -5 7 -12 16 -15 14 -5 15 -4 4 9 -14 17 -20 19 -20 6z"/>
<path d="M892 3723 c-6 -21 -14 -58 -17 -83 -6 -42 -5 -44 9 -26 9 11 16 37
16 57 0 21 4 49 10 63 5 14 6 26 1 26 -4 0 -13 -17 -19 -37z"/>
<path d="M823 3688 c-19 -25 -24 -38 -14 -38 11 0 35 39 28 46 -2 3 -9 -1 -14
-8z"/>
<path d="M728 3560 c-21 -52 -14 -52 12 0 11 22 17 40 13 40 -5 0 -16 -18 -25
-40z"/>
<path d="M685 3480 c-17 -33 -19 -44 -6 -36 10 6 33 66 26 66 -3 0 -11 -13
-20 -30z"/>
<path d="M554 3105 c0 -57 2 -63 12 -43 6 13 15 39 18 58 l7 35 -16 -25 -16
-25 6 33 c4 17 3 32 -2 32 -5 0 -9 -29 -9 -65z"/>
<path d="M496 2865 c-9 -44 -21 -90 -26 -102 -5 -13 -6 -25 0 -28 9 -6 11 -3
35 102 9 39 15 80 13 90 -3 10 -12 -18 -22 -62z"/>
<path d="M471 2635 c7 -66 19 -100 19 -53 0 43 -12 118 -19 118 -4 0 -4 -29 0
-65z"/>
<path d="M531 2670 c0 -33 1 -34 11 -12 8 17 8 26 0 34 -9 9 -12 4 -11 -22z"/>
<path d="M507 2654 c-9 -9 -9 -120 0 -153 6 -22 6 -22 19 9 8 18 14 44 13 59
-1 35 -23 94 -32 85z"/>
<path d="M1153 2262 c-9 -5 11 -20 57 -42 38 -18 72 -31 75 -28 13 12 -9 36
-51 56 -48 24 -62 26 -81 14z"/>
<path d="M2150 2109 c-12 -21 -7 -49 8 -49 7 0 42 52 42 64 0 16 -41 4 -50
-15z"/>
<path d="M900 2030 c0 -5 4 -10 9 -10 6 0 13 5 16 10 3 6 -1 10 -9 10 -9 0
-16 -4 -16 -10z"/>
<path d="M925 2011 c-10 -17 7 -91 21 -91 17 0 28 42 20 75 -6 25 -29 34 -41
16z"/>
<path d="M1778 2003 c-15 -4 -16 -8 -7 -24 8 -16 13 -18 25 -8 15 12 20 40 7
38 -5 -1 -16 -3 -25 -6z"/>
<path d="M2131 1884 c-34 -44 -36 -63 -6 -94 25 -26 90 -49 103 -36 3 4 -4 16
-15 29 -24 26 -37 73 -23 82 5 3 10 15 10 26 0 29 -44 25 -69 -7z"/>
<path d="M2053 1673 c-7 -2 -13 -9 -13 -15 0 -12 41 -6 41 7 1 12 -11 15 -28
8z"/>
<path d="M2190 1665 c0 -8 2 -15 4 -15 2 0 6 7 10 15 3 8 1 15 -4 15 -6 0 -10
-7 -10 -15z"/>
<path d="M2243 1601 l-42 -28 52 -21 c58 -25 67 -20 67 41 0 46 -17 48 -77 8z"/>
<path d="M1952 1557 c-12 -13 -48 -31 -80 -41 -63 -20 -128 -51 -136 -65 -10
-16 35 -61 107 -108 55 -37 80 -47 117 -49 27 -1 62 -5 80 -9 30 -7 31 -6 21
14 -13 24 -32 26 -64 10 -20 -10 -19 -9 4 17 57 62 62 77 43 124 -17 42 -15
51 19 63 17 5 -5 34 -39 50 -44 22 -46 21 -72 -6z"/>
<path d="M2318 1535 c-15 -19 -18 -45 -18 -133 l0 -109 -50 5 c-41 4 -50 2
-50 -11 0 -12 14 -18 50 -23 l50 -7 0 -48 c0 -42 3 -49 20 -49 17 0 20 7 20
50 l0 50 38 1 c20 1 44 1 54 0 9 -1 20 3 24 10 5 8 -2 10 -25 7 -17 -2 -31 -1
-31 4 0 4 -16 8 -36 8 l-37 0 6 135 c3 74 5 135 4 135 -1 0 -10 -11 -19 -25z"/>
<path d="M2102 1372 c-18 -15 -32 -36 -32 -47 0 -49 63 -95 101 -75 25 14 25
60 -1 93 l-20 25 51 7 c27 4 49 8 47 10 -2 1 -28 5 -58 9 -50 5 -58 3 -88 -22z"/>
<path d="M2375 1390 c-8 -13 -1 -24 14 -19 6 3 7 10 2 18 -6 10 -10 10 -16 1z"/>
<path d="M1676 1367 c4 -10 33 -22 82 -32 43 -9 84 -18 92 -21 8 -2 4 5 -10
16 -25 20 -63 33 -133 46 -31 5 -36 4 -31 -9z"/>
<path d="M2520 1334 c0 -42 53 -84 105 -84 31 0 101 -34 108 -53 3 -7 25 -19
48 -26 24 -7 52 -20 61 -28 15 -14 22 -12 72 13 55 27 56 28 91 11 39 -19 92
-22 115 -7 12 8 9 12 -17 22 -20 8 -33 19 -33 30 0 10 -6 18 -13 18 -8 0 -22
9 -32 20 -10 11 -28 20 -40 20 -12 0 -43 9 -68 20 -38 17 -62 20 -129 17 -46
-2 -93 -9 -105 -16 -20 -10 -29 -7 -74 24 -55 37 -89 45 -89 19z"/>
<path d="M3207 1319 c3 -12 -8 -24 -36 -40 -36 -20 -53 -39 -36 -39 10 0 112
68 119 78 3 5 -7 12 -23 14 -23 3 -27 1 -24 -13z"/>
<path d="M1660 1301 c0 -14 44 -38 147 -81 105 -43 125 -48 117 -26 -6 16 -87
53 -136 61 -20 3 -57 17 -82 30 -25 13 -46 21 -46 16z"/>
<path d="M2482 1278 c-21 -21 -13 -28 28 -28 44 0 49 6 23 26 -22 17 -36 17
-51 2z"/>
<path d="M2688 1143 c-2 -37 0 -73 4 -79 4 -5 5 -20 1 -32 -9 -37 13 -52 77
-52 44 0 59 4 64 16 5 14 -2 15 -54 12 l-59 -3 -3 99 c-2 64 -7 101 -15 103
-7 3 -12 -18 -15 -64z"/>
<path d="M2040 1176 c0 -2 7 -6 15 -10 8 -3 15 -1 15 4 0 6 -7 10 -15 10 -8 0
-15 -2 -15 -4z"/>
<path d="M2127 1153 c-13 -12 -7 -23 12 -23 28 0 52 11 45 21 -6 10 -48 12
-57 2z"/>
<path d="M2295 1143 c-29 -7 -43 -23 -19 -23 32 0 64 12 58 21 -5 9 -7 10 -39
2z"/>
<path d="M2313 1112 c-17 -11 -5 -92 13 -85 9 3 14 21 14 49 0 44 -5 50 -27
36z"/>
</g>
</svg>
